<svg viewBox="0 0 688 87" fill="none" xmlns="http://www.w3.org/2000/svg"><path d="M448.75 56.5v-51h12V87l-55-57v51.5h-12V0zM520.25 3c22.368 0 40.5 18.133 40.5 40.5S542.618 84 520.25 84s-40.5-18.132-40.5-40.5S497.882 3 520.25 3m-391.5 57.5s4.9 11 16.5 11 16.5-11 16.5-11V5h12v54.5c0 8-8.9 23-28.5 23s-28.5-15-28.5-23V5h12zM11.335 4.265a58.4 58.4 0 0 1 9.138.904h-.001c3.422.55 6.456 1.62 9.09 3.218l.503.31c2.49 1.582 4.49 3.689 5.994 6.312 1.625 2.837 2.409 6.472 2.409 10.855a17.2 17.2 0 0 1-.63 4.531 17.3 17.3 0 0 1-1.672 4.297h-.001a17 17 0 0 1-2.62 3.68l-.018.017a13 13 0 0 1-2.143 1.74 17.4 17.4 0 0 1 4.731 2.14l.363.24a19 19 0 0 1 4.648 4.47l.257.342a21.2 21.2 0 0 1 2.97 5.71l.138.407a20 20 0 0 1 1.009 6.294c0 3.68-.664 6.89-2.022 9.602l-.28.536a20.24 20.24 0 0 1-6.153 6.904l-.01.008c-2.396 1.624-5.09 2.849-8.073 3.676l-.602.16-.014.003a43.2 43.2 0 0 1-9.915 1.129H.75A.75.75 0 0 1 0 81V5l.004-.077A.75.75 0 0 1 .75 4.25h9.242zm293.75 0a58.4 58.4 0 0 1 9.138.904h-.001c3.422.55 6.456 1.62 9.09 3.218l.503.31c2.491 1.582 4.49 3.689 5.994 6.312 1.625 2.837 2.409 6.472 2.409 10.855q-.001 2.225-.629 4.531a17.3 17.3 0 0 1-1.673 4.297h-.001a17 17 0 0 1-2.62 3.68l-.018.017a13 13 0 0 1-2.143 1.74 17.4 17.4 0 0 1 4.731 2.14l.364.24a19 19 0 0 1 4.647 4.47l.257.342a21.2 21.2 0 0 1 2.97 5.71l.138.407a20 20 0 0 1 1.009 6.294c0 3.68-.664 6.89-2.021 9.602l-.282.536a20.2 20.2 0 0 1-6.152 6.904l-.011.008q-3.594 2.436-8.072 3.676l-.602.16-.014.003a43.2 43.2 0 0 1-9.915 1.129H294.5a.75.75 0 0 1-.75-.75V5l.004-.077a.75.75 0 0 1 .746-.673h9.242zm296.509.235c4.155 0 7.899.987 11.216 2.968h.001c3.318 1.918 6 4.693 8.045 8.308a.5.5 0 0 1-.178.676l-7.279 4.35a.5.5 0 0 1-.685-.17c-1.325-2.2-2.89-3.846-4.687-4.957l-.006-.004.269-.422-.269.42c-1.711-1.095-3.908-1.66-6.622-1.66a13 13 0 0 0-4.299.746l-.013.004q-1.795.57-3.302 1.635l-.425.314a10.1 10.1 0 0 0-2.683 3.134l-.005.01c-.662 1.138-1 2.467-1 4.003 0 1.339.305 2.507.901 3.517l.239.387q.864 1.335 2.084 2.39 1.41 1.216 3.107 2.158a54 54 0 0 0 3.539 1.524l5.241 2.031.004.001-.174.438.174-.437q3.905 1.557 7.234 3.505 3.464 1.873 5.952 4.548l.307.339q2.271 2.566 3.575 5.906l.17.441c.821 2.227 1.225 4.789 1.225 7.674q.001 5.03-1.885 9.385c-1.191 2.832-2.88 5.275-5.066 7.321-2.118 2.043-4.631 3.655-7.529 4.836l-.009.004q-4.365 1.679-9.4 1.677-4.268 0-8.031-1.39l-.499-.193q-3.963-1.578-7.04-4.347l-.006-.005q-2.793-2.599-4.705-6.14l-.251-.476a25.2 25.2 0 0 1-2.495-7.733l-.079-.552a.5.5 0 0 1 .392-.556l9.22-1.933a.5.5 0 0 1 .603.49q0 2.904 1.03 5.418a12.3 12.3 0 0 0 2.889 4.178l.236.218q1.789 1.614 4.165 2.58 2.528.931 5.349.932c1.872 0 3.576-.373 5.121-1.111l.007-.003.301-.144q2.239-1.094 3.807-2.832l.009-.01.219-.235a12.9 12.9 0 0 0 2.491-4.048l.004-.008.124-.316q.905-2.377.906-5.007c0-1.872-.345-3.468-1.015-4.803l-.004-.008a10.7 10.7 0 0 0-2.782-3.605l-.021-.018a16 16 0 0 0-3.398-2.43l-.558-.29-.023-.013a42 42 0 0 0-4.507-2.198h-.003l-5.046-2.128-.005-.003a87 87 0 0 1-6.052-2.917l-.012-.006.246-.435-.246.434a26.7 26.7 0 0 1-4.661-3.308l-.581-.535-.016-.016a19.5 19.5 0 0 1-3.586-5.259l-.005-.012c-.874-2.008-1.303-4.303-1.303-6.872 0-3.032.596-5.753 1.8-8.153l.004-.01.242-.442a19.2 19.2 0 0 1 4.74-5.611l.389-.306q2.747-2.102 6.168-3.29l.492-.165a24.8 24.8 0 0 1 8.209-1.378M77.25 69.5h22.5V81h-34V5h11.5zM239.75 17h-30v18h29v11.5h-29v23h30V81h-42V5h42zm448 0h-30v18h29v11.5h-29v23h30V81h-42V5h42zm-167-3c-16.016 0-29 12.984-29 29s12.984 29 29 29 29-12.984 29-29-12.984-29-29-29M10.943 71.783h6.483q3.249 0 6.293-.492c2.064-.389 3.886-1.065 5.475-2.022l.011-.005.3-.181a10.3 10.3 0 0 0 3.545-3.677l.01-.018c.98-1.598 1.497-3.67 1.497-6.261 0-2.578-.577-4.595-1.667-6.114-1.13-1.574-2.605-2.805-4.44-3.694l-.009-.004.336-.67-.336.67q-2.526-1.27-5.59-1.779l-.412-.064a44 44 0 0 0-6.42-.496h-5.076zm293.75 0h6.483q3.248 0 6.293-.492c2.064-.389 3.886-1.065 5.475-2.022l.011-.005.301-.181a10.3 10.3 0 0 0 3.544-3.677l.011-.018c.979-1.598 1.496-3.67 1.496-6.261 0-2.578-.577-4.595-1.667-6.114-1.13-1.574-2.605-2.805-4.44-3.694l-.009-.004.336-.67-.336.67q-2.526-1.27-5.59-1.779l-.412-.064a44 44 0 0 0-6.419-.496h-5.077zM10.943 37.916h1.66q3.259-.001 6.107-.394c1.931-.324 3.578-.9 4.957-1.716 1.351-.867 2.43-2.04 3.24-3.536.795-1.536 1.22-3.62 1.22-6.304 0-2.454-.373-4.378-1.071-5.815l-.144-.28-.012-.022c-.696-1.398-1.654-2.48-2.877-3.266l-.25-.152-.02-.014c-1.286-.821-2.775-1.375-4.479-1.651l-.343-.052-.026-.004q-2.842-.492-6.1-.493h-1.862zm293.75 0h1.661q3.258-.001 6.106-.394c1.931-.324 3.578-.9 4.957-1.716 1.351-.867 2.431-2.04 3.24-3.536.795-1.536 1.221-3.62 1.221-6.304 0-2.454-.374-4.378-1.072-5.815l-.144-.28-.012-.022c-.696-1.398-1.654-2.48-2.878-3.266l-.249-.152-.02-.014c-1.286-.821-2.775-1.375-4.479-1.651l-.343-.052-.026-.004q-2.842-.492-6.1-.493h-1.862z" fill="currentColor"/></svg>