<svg viewBox="0 0 688 87" fill="none" xmlns="http://www.w3.org/2000/svg">
<path d="M448.75 56.5V5.5H460.75V87L405.75 30V81.5H393.75V0L448.75 56.5ZM520.25 3C542.618 3 560.75 21.1325 560.75 43.5C560.75 65.8675 542.618 84 520.25 84C497.882 84 479.75 65.8675 479.75 43.5C479.75 21.1325 497.882 3 520.25 3ZM128.75 60.5C128.75 60.5 133.65 71.5 145.25 71.5C156.85 71.5 161.75 60.5 161.75 60.5V5H173.75V59.5C173.75 67.5 164.85 82.5 145.25 82.5C125.65 82.5 116.75 67.5 116.75 59.5V5H128.75V60.5ZM11.335 4.26465C14.4564 4.33163 17.5027 4.63256 20.4727 5.16895H20.4717C23.8941 5.71994 26.9282 6.78882 29.5615 8.38672L30.0654 8.69629C32.5555 10.2786 34.5554 12.3857 36.0586 15.0088C37.6844 17.8458 38.4677 21.4814 38.4678 25.8643C38.4678 27.3472 38.2566 28.8585 37.8389 30.3955C37.4873 31.8674 36.9291 33.3003 36.166 34.6924L36.165 34.6914C35.4646 36.0241 34.5911 37.2513 33.5449 38.3711C33.5394 38.377 33.533 38.383 33.5273 38.3887C32.868 39.0502 32.1533 39.6304 31.3838 40.1289C33.0598 40.6026 34.6379 41.3157 36.1152 42.2686L36.4785 42.5088C38.2723 43.7237 39.822 45.2148 41.126 46.9785L41.3828 47.3213C42.6481 49.044 43.6382 50.9483 44.3525 53.0312L44.4912 53.4375C45.1638 55.4743 45.5 57.5739 45.5 59.7324C45.5 63.4123 44.8363 66.6215 43.4785 69.334L43.1973 69.8701C41.6696 72.6569 39.6172 74.9608 37.0449 76.7744L37.0342 76.7822C34.6386 78.4063 31.9457 79.6308 28.9619 80.458L28.3604 80.6182L28.3457 80.6211C25.1401 81.3739 21.8347 81.75 18.4307 81.75H0.75C0.335786 81.75 0 81.4142 0 81V5L0.00390625 4.92285C0.0425277 4.54488 0.361834 4.25 0.75 4.25H9.99219L11.335 4.26465ZM305.085 4.26465C308.206 4.33163 311.253 4.63256 314.223 5.16895H314.222C317.644 5.71994 320.678 6.78882 323.312 8.38672L323.815 8.69629C326.306 10.2786 328.305 12.3857 329.809 15.0088C331.434 17.8458 332.218 21.4814 332.218 25.8643C332.218 27.3472 332.007 28.8585 331.589 30.3955C331.237 31.8674 330.679 33.3003 329.916 34.6924L329.915 34.6914C329.215 36.0241 328.341 37.2513 327.295 38.3711C327.289 38.377 327.283 38.383 327.277 38.3887C326.618 39.0502 325.903 39.6304 325.134 40.1289C326.81 40.6026 328.388 41.3157 329.865 42.2686L330.229 42.5088C332.022 43.7237 333.572 45.2148 334.876 46.9785L335.133 47.3213C336.398 49.044 337.388 50.9483 338.103 53.0312L338.241 53.4375C338.914 55.4743 339.25 57.5739 339.25 59.7324C339.25 63.4123 338.586 66.6215 337.229 69.334L336.947 69.8701C335.42 72.6569 333.367 74.9608 330.795 76.7744L330.784 76.7822C328.389 78.4063 325.696 79.6308 322.712 80.458L322.11 80.6182L322.096 80.6211C318.89 81.3739 315.585 81.75 312.181 81.75H294.5C294.086 81.75 293.75 81.4142 293.75 81V5L293.754 4.92285C293.793 4.54488 294.112 4.25 294.5 4.25H303.742L305.085 4.26465ZM601.594 4.5C605.749 4.50007 609.493 5.48668 612.81 7.46777H612.811C616.129 9.38572 618.811 12.1608 620.856 15.7764C620.99 16.0125 620.91 16.3128 620.678 16.4521L613.399 20.8027C613.163 20.944 612.856 20.8677 612.714 20.6318C611.389 18.4311 609.824 16.7859 608.027 15.6748L608.021 15.6709L608.29 15.249L608.021 15.6699C606.31 14.5744 604.113 14.0088 601.399 14.0088C599.971 14.0088 598.538 14.2566 597.1 14.7549L597.087 14.7588C595.89 15.1382 594.79 15.6834 593.785 16.3936L593.36 16.708C592.25 17.5687 591.355 18.6124 590.677 19.8418L590.672 19.8516C590.01 20.9899 589.672 22.3191 589.672 23.8545C589.672 25.1937 589.977 26.3618 590.573 27.3721L590.812 27.7588C591.388 28.6494 592.082 29.446 592.896 30.1484C593.836 30.9603 594.872 31.6796 596.003 32.3066C597.216 32.8785 598.395 33.3868 599.542 33.8311L604.783 35.8623L604.787 35.8633L604.613 36.3008L604.787 35.8643C607.39 36.9016 609.802 38.0699 612.021 39.3691H612.021C614.33 40.6176 616.315 42.1335 617.973 43.917L618.28 44.2559C619.794 45.9662 620.986 47.9364 621.855 50.1621L622.025 50.6035C622.846 52.8305 623.25 55.3916 623.25 58.2773C623.25 61.6288 622.623 64.7592 621.365 67.6621C620.174 70.4945 618.485 72.937 616.299 74.9834C614.181 77.0263 611.668 78.6377 608.77 79.8193L608.761 79.8232C605.852 80.9428 602.717 81.5 599.361 81.5C596.516 81.4999 593.838 81.0375 591.33 80.1094L590.831 79.917C588.19 78.8645 585.842 77.4159 583.791 75.5703L583.785 75.5645C581.923 73.833 580.355 71.785 579.08 69.4248L578.829 68.9492C577.591 66.5429 576.759 63.964 576.334 61.2158L576.255 60.6641C576.22 60.4046 576.391 60.1622 576.647 60.1084L585.867 58.1748C586.014 58.1442 586.167 58.1817 586.284 58.2764C586.401 58.3713 586.47 58.5136 586.47 58.6641C586.47 60.6016 586.814 62.4063 587.5 64.083C588.185 65.6944 589.147 67.0859 590.389 68.2607L590.625 68.4785C591.818 69.5545 593.205 70.4147 594.79 71.0586C596.476 71.6793 598.258 71.9912 600.139 71.9912C602.011 71.9911 603.715 71.6184 605.26 70.8799L605.267 70.877L605.568 70.7334C607.061 70.0043 608.329 69.0597 609.375 67.9014L609.384 67.8916L609.603 67.6562C610.679 66.471 611.509 65.1224 612.094 63.6084L612.098 63.5996L612.222 63.2842C612.825 61.6993 613.128 60.0314 613.128 58.2773C613.128 56.4047 612.783 54.8086 612.113 53.4736L612.109 53.4658C611.428 52.0458 610.5 50.8458 609.327 49.8613L609.306 49.8428C608.321 48.9158 607.189 48.105 605.908 47.4121L605.35 47.1221L605.327 47.1104C603.856 46.2821 602.354 45.5489 600.82 44.9121L600.817 44.9111L595.771 42.7842L595.766 42.7812C593.684 41.8739 591.666 40.9017 589.714 39.8643L589.702 39.8584L589.948 39.4229L589.702 39.8574C587.975 38.8824 586.421 37.7797 585.041 36.5488L584.46 36.0137L584.444 35.998C582.982 34.4747 581.786 32.7204 580.858 30.7393L580.853 30.7266C579.979 28.7189 579.55 26.4241 579.55 23.8545C579.55 20.8228 580.146 18.1015 581.35 15.7021L581.354 15.6924L581.596 15.25C582.824 13.0617 584.405 11.1902 586.336 9.63867L586.725 9.33301C588.555 7.9316 590.613 6.83503 592.893 6.04297L593.385 5.87793C596.023 4.95926 598.76 4.50003 601.594 4.5ZM77.25 69.5H99.75V81H65.75V5H77.25V69.5ZM239.75 17H209.75V35H238.75V46.5H209.75V69.5H239.75V81H197.75V5H239.75V17ZM687.75 17H657.75V35H686.75V46.5H657.75V69.5H687.75V81H645.75V5H687.75V17ZM520.75 14C504.734 14 491.75 26.9837 491.75 43C491.75 59.0163 504.734 72 520.75 72C536.766 72 549.75 59.0163 549.75 43C549.75 26.9837 536.766 14 520.75 14ZM10.9434 71.7832H17.4258C19.5919 71.7832 21.6893 71.6185 23.7188 71.291C25.7832 70.9024 27.6055 70.2261 29.1943 69.2695L29.2051 69.2637L29.5059 69.083C30.9905 68.1601 32.1694 66.9373 33.0498 65.4062L33.0605 65.3877C34.0404 63.79 34.5566 61.7185 34.5566 59.127C34.5566 56.5492 33.9796 54.5317 32.8896 53.0127C31.7603 51.4388 30.285 50.2081 28.4502 49.3193L28.4414 49.3154L28.7773 48.6445L28.4414 49.3145C26.7564 48.4691 24.8942 47.8753 22.8506 47.5361L22.4395 47.4717C20.1949 47.1405 18.0552 46.9756 16.0195 46.9756H10.9434V71.7832ZM304.693 71.7832H311.176C313.342 71.7832 315.439 71.6185 317.469 71.291C319.533 70.9024 321.355 70.2261 322.944 69.2695L322.955 69.2637L323.256 69.083C324.74 68.1601 325.919 66.9373 326.8 65.4062L326.811 65.3877C327.79 63.79 328.307 61.7185 328.307 59.127C328.307 56.5492 327.73 54.5317 326.64 53.0127C325.51 51.4388 324.035 50.2081 322.2 49.3193L322.191 49.3154L322.527 48.6445L322.191 49.3145C320.506 48.4691 318.644 47.8753 316.601 47.5361L316.189 47.4717C313.945 47.1405 311.805 46.9756 309.77 46.9756H304.693V71.7832ZM10.9434 37.916H12.6035C14.7761 37.916 16.8113 37.7832 18.71 37.5215C20.6412 37.1984 22.2884 36.6219 23.667 35.8057C25.0181 34.9394 26.0977 33.7662 26.9072 32.2695C27.7021 30.7341 28.1279 28.6497 28.1279 25.9658C28.1279 23.5118 27.7538 21.5885 27.0557 20.1514L26.9121 19.8711C26.9082 19.8639 26.904 19.856 26.9004 19.8486C26.204 18.4514 25.2457 17.3687 24.0225 16.583L23.7734 16.4307L23.7529 16.417C22.467 15.5959 20.9781 15.0424 19.2744 14.7656L18.9307 14.7139C18.9223 14.7127 18.9136 14.7114 18.9053 14.71C17.0101 14.3821 14.9769 14.2168 12.8047 14.2168H10.9434V37.916ZM304.693 37.916H306.354C308.526 37.916 310.561 37.7832 312.46 37.5215C314.391 37.1984 316.038 36.6219 317.417 35.8057C318.768 34.9394 319.848 33.7662 320.657 32.2695C321.452 30.7341 321.878 28.6497 321.878 25.9658C321.878 23.5118 321.504 21.5885 320.806 20.1514L320.662 19.8711C320.658 19.8639 320.654 19.856 320.65 19.8486C319.954 18.4514 318.996 17.3687 317.772 16.583L317.523 16.4307L317.503 16.417C316.217 15.5959 314.728 15.0424 313.024 14.7656L312.681 14.7139C312.672 14.7127 312.664 14.7114 312.655 14.71C310.76 14.3821 308.727 14.2168 306.555 14.2168H304.693V37.916Z" fill="currentColor"/>
</svg>
