<svg viewBox="0 0 1131 239" fill="none" xmlns="http://www.w3.org/2000/svg">
<path d="M891.75 208.5V157.5H903.75V239L848.75 182V233.5H836.75V152L891.75 208.5ZM963.25 155C985.618 155 1003.75 173.132 1003.75 195.5C1003.75 217.868 985.618 236 963.25 236C940.882 236 922.75 217.868 922.75 195.5C922.75 173.132 940.882 155 963.25 155ZM571.75 212.5C571.75 212.5 576.65 223.5 588.25 223.5C599.85 223.5 604.75 212.5 604.75 212.5V157H616.75V211.5C616.75 219.5 607.85 234.5 588.25 234.5C568.65 234.5 559.75 219.5 559.75 211.5V157H571.75V212.5ZM454.335 156.265C457.456 156.332 460.503 156.633 463.473 157.169H463.472C466.894 157.72 469.928 158.789 472.562 160.387L473.065 160.696C475.556 162.279 477.555 164.386 479.059 167.009C480.684 169.846 481.468 173.481 481.468 177.864C481.468 179.347 481.257 180.859 480.839 182.396C480.487 183.867 479.929 185.3 479.166 186.692L479.165 186.691C478.465 188.024 477.591 189.251 476.545 190.371C476.539 190.377 476.533 190.383 476.527 190.389C475.868 191.05 475.153 191.63 474.384 192.129C476.06 192.603 477.638 193.316 479.115 194.269L479.479 194.509C481.272 195.724 482.822 197.215 484.126 198.979L484.383 199.321C485.648 201.044 486.638 202.948 487.353 205.031L487.491 205.438C488.164 207.474 488.5 209.574 488.5 211.732C488.5 215.412 487.836 218.621 486.479 221.334L486.197 221.87C484.67 224.657 482.617 226.961 480.045 228.774L480.034 228.782C477.639 230.406 474.946 231.631 471.962 232.458L471.36 232.618L471.346 232.621C468.14 233.374 464.835 233.75 461.431 233.75H443.75C443.336 233.75 443 233.414 443 233V157L443.004 156.923C443.043 156.545 443.362 156.25 443.75 156.25H452.992L454.335 156.265ZM748.085 156.265C751.206 156.332 754.253 156.633 757.223 157.169H757.222C760.644 157.72 763.678 158.789 766.312 160.387L766.815 160.696C769.306 162.279 771.305 164.386 772.809 167.009C774.434 169.846 775.218 173.481 775.218 177.864C775.218 179.347 775.007 180.859 774.589 182.396C774.237 183.867 773.679 185.3 772.916 186.692L772.915 186.691C772.215 188.024 771.341 189.251 770.295 190.371C770.289 190.377 770.283 190.383 770.277 190.389C769.618 191.05 768.903 191.63 768.134 192.129C769.81 192.603 771.388 193.316 772.865 194.269L773.229 194.509C775.022 195.724 776.572 197.215 777.876 198.979L778.133 199.321C779.398 201.044 780.388 202.948 781.103 205.031L781.241 205.438C781.914 207.474 782.25 209.574 782.25 211.732C782.25 215.412 781.586 218.621 780.229 221.334L779.947 221.87C778.42 224.657 776.367 226.961 773.795 228.774L773.784 228.782C771.389 230.406 768.696 231.631 765.712 232.458L765.11 232.618L765.096 232.621C761.89 233.374 758.585 233.75 755.181 233.75H737.5C737.086 233.75 736.75 233.414 736.75 233V157L736.754 156.923C736.793 156.545 737.112 156.25 737.5 156.25H746.742L748.085 156.265ZM1044.59 156.5C1048.75 156.5 1052.49 157.487 1055.81 159.468H1055.81C1059.13 161.386 1061.81 164.161 1063.86 167.776C1063.99 168.012 1063.91 168.313 1063.68 168.452L1056.4 172.803C1056.16 172.944 1055.86 172.868 1055.71 172.632C1054.39 170.431 1052.82 168.786 1051.03 167.675L1051.02 167.671L1051.29 167.249L1051.02 167.67C1049.31 166.574 1047.11 166.009 1044.4 166.009C1042.97 166.009 1041.54 166.257 1040.1 166.755L1040.09 166.759C1038.89 167.138 1037.79 167.683 1036.79 168.394L1036.36 168.708C1035.25 169.569 1034.36 170.612 1033.68 171.842L1033.67 171.852C1033.01 172.99 1032.67 174.319 1032.67 175.854C1032.67 177.194 1032.98 178.362 1033.57 179.372L1033.81 179.759C1034.39 180.649 1035.08 181.446 1035.9 182.148C1036.84 182.96 1037.87 183.68 1039 184.307C1040.22 184.878 1041.4 185.387 1042.54 185.831L1047.78 187.862L1047.79 187.863L1047.61 188.301L1047.79 187.864C1050.39 188.902 1052.8 190.07 1055.02 191.369H1055.02C1057.33 192.618 1059.32 194.134 1060.97 195.917L1061.28 196.256C1062.79 197.966 1063.99 199.936 1064.86 202.162L1065.03 202.604C1065.85 204.83 1066.25 207.392 1066.25 210.277C1066.25 213.629 1065.62 216.759 1064.37 219.662C1063.17 222.495 1061.49 224.937 1059.3 226.983C1057.18 229.026 1054.67 230.638 1051.77 231.819L1051.76 231.823C1048.85 232.943 1045.72 233.5 1042.36 233.5C1039.52 233.5 1036.84 233.037 1034.33 232.109L1033.83 231.917C1031.19 230.865 1028.84 229.416 1026.79 227.57L1026.79 227.564C1024.92 225.833 1023.36 223.785 1022.08 221.425L1021.83 220.949C1020.59 218.543 1019.76 215.964 1019.33 213.216L1019.25 212.664C1019.22 212.405 1019.39 212.162 1019.65 212.108L1028.87 210.175C1029.01 210.144 1029.17 210.182 1029.28 210.276C1029.4 210.371 1029.47 210.514 1029.47 210.664C1029.47 212.602 1029.81 214.406 1030.5 216.083C1031.19 217.694 1032.15 219.086 1033.39 220.261L1033.62 220.479C1034.82 221.554 1036.21 222.415 1037.79 223.059C1039.48 223.679 1041.26 223.991 1043.14 223.991C1045.01 223.991 1046.72 223.618 1048.26 222.88L1048.27 222.877L1048.57 222.733C1050.06 222.004 1051.33 221.06 1052.38 219.901L1052.38 219.892L1052.6 219.656C1053.68 218.471 1054.51 217.122 1055.09 215.608L1055.1 215.6L1055.22 215.284C1055.83 213.699 1056.13 212.031 1056.13 210.277C1056.13 208.405 1055.78 206.809 1055.11 205.474L1055.11 205.466C1054.43 204.046 1053.5 202.846 1052.33 201.861L1052.31 201.843C1051.32 200.916 1050.19 200.105 1048.91 199.412L1048.35 199.122L1048.33 199.11C1046.86 198.282 1045.35 197.549 1043.82 196.912L1043.82 196.911L1038.77 194.784L1038.77 194.781C1036.68 193.874 1034.67 192.902 1032.71 191.864L1032.7 191.858L1032.95 191.423L1032.7 191.857C1030.98 190.882 1029.42 189.78 1028.04 188.549L1027.46 188.014L1027.44 187.998C1025.98 186.475 1024.79 184.72 1023.86 182.739L1023.85 182.727C1022.98 180.719 1022.55 178.424 1022.55 175.854C1022.55 172.823 1023.15 170.101 1024.35 167.702L1024.35 167.692L1024.6 167.25C1025.82 165.062 1027.41 163.19 1029.34 161.639L1029.72 161.333C1031.56 159.932 1033.61 158.835 1035.89 158.043L1036.38 157.878C1039.02 156.959 1041.76 156.5 1044.59 156.5ZM520.25 221.5H542.75V233H508.75V157H520.25V221.5ZM682.75 169H652.75V187H681.75V198.5H652.75V221.5H682.75V233H640.75V157H682.75V169ZM1130.75 169H1100.75V187H1129.75V198.5H1100.75V221.5H1130.75V233H1088.75V157H1130.75V169ZM963.75 166C947.734 166 934.75 178.984 934.75 195C934.75 211.016 947.734 224 963.75 224C979.766 224 992.75 211.016 992.75 195C992.75 178.984 979.766 166 963.75 166ZM453.943 223.783H460.426C462.592 223.783 464.689 223.619 466.719 223.291C468.783 222.902 470.605 222.226 472.194 221.27L472.205 221.264L472.506 221.083C473.99 220.16 475.169 218.937 476.05 217.406L476.061 217.388C477.04 215.79 477.557 213.719 477.557 211.127C477.557 208.549 476.98 206.532 475.89 205.013C474.76 203.439 473.285 202.208 471.45 201.319L471.441 201.315L471.777 200.645L471.441 201.314C469.756 200.469 467.894 199.875 465.851 199.536L465.439 199.472C463.195 199.14 461.055 198.976 459.02 198.976H453.943V223.783ZM747.693 223.783H754.176C756.342 223.783 758.439 223.619 760.469 223.291C762.533 222.902 764.355 222.226 765.944 221.27L765.955 221.264L766.256 221.083C767.74 220.16 768.919 218.937 769.8 217.406L769.811 217.388C770.79 215.79 771.307 213.719 771.307 211.127C771.307 208.549 770.73 206.532 769.64 205.013C768.51 203.439 767.035 202.208 765.2 201.319L765.191 201.315L765.527 200.645L765.191 201.314C763.506 200.469 761.644 199.875 759.601 199.536L759.189 199.472C756.945 199.14 754.805 198.976 752.77 198.976H747.693V223.783ZM453.943 189.916H455.604C457.776 189.916 459.811 189.783 461.71 189.521C463.641 189.198 465.288 188.622 466.667 187.806C468.018 186.939 469.098 185.766 469.907 184.27C470.702 182.734 471.128 180.65 471.128 177.966C471.128 175.512 470.754 173.589 470.056 172.151L469.912 171.871C469.908 171.864 469.904 171.856 469.9 171.849C469.204 170.451 468.246 169.369 467.022 168.583L466.773 168.431L466.753 168.417C465.467 167.596 463.978 167.042 462.274 166.766L461.931 166.714C461.922 166.713 461.914 166.711 461.905 166.71C460.01 166.382 457.977 166.217 455.805 166.217H453.943V189.916ZM747.693 189.916H749.354C751.526 189.916 753.561 189.783 755.46 189.521C757.391 189.198 759.038 188.622 760.417 187.806C761.768 186.939 762.848 185.766 763.657 184.27C764.452 182.734 764.878 180.65 764.878 177.966C764.878 175.512 764.504 173.589 763.806 172.151L763.662 171.871C763.658 171.864 763.654 171.856 763.65 171.849C762.954 170.451 761.996 169.369 760.772 168.583L760.523 168.431L760.503 168.417C759.217 167.596 757.728 167.042 756.024 166.766L755.681 166.714C755.672 166.713 755.664 166.711 755.655 166.71C753.76 166.382 751.727 166.217 749.555 166.217H747.693V189.916Z" fill="currentColor"/>
<path d="M348.451 159.322L298.69 238.994L248.896 159.322H348.451Z" fill="#69AEE0"/>
<path d="M199.122 238.996L248.902 159.318L298.682 238.996H199.122Z" fill="#70B1E1"/>
<path d="M248.891 159.322L199.123 238.994L149.342 159.322H248.891Z" fill="#92CAEF"/>
<path d="M99.5625 238.996L149.343 159.318L199.123 238.996H99.5625Z" fill="#92CAEF"/>
<path d="M0 238.994L49.7805 159.322L99.5608 239L0 238.994Z" fill="#7EBAE6"/>
<path d="M398.249 79.6719L348.469 159.324L298.682 79.6719H398.249Z" fill="#85C1EB"/>
<path d="M248.901 159.324L298.675 79.6719L348.449 159.324H248.901Z" fill="#7EBAE6"/>
<path d="M298.682 79.6719L248.902 159.324L199.122 79.6719H298.682Z" fill="#7BB8E5"/>
<path d="M149.342 159.324L199.123 79.6719L248.891 159.324H149.342Z" fill="#85C1EB"/>
<path d="M199.123 79.6719L149.343 159.324L99.5625 79.6719H199.123Z" fill="#73B2E2"/>
<path d="M49.7822 159.324L99.5626 79.6719L149.331 159.324H49.7822Z" fill="#67A0D3"/>
<path d="M298.682 79.671L348.457 0L398.243 79.677L298.682 79.671Z" fill="#99D2F3"/>
<path d="M199.122 79.671L248.902 0L298.682 79.677L199.122 79.671Z" fill="#82BEE9"/>
<path d="M99.5625 79.671L149.343 0L199.123 79.677L99.5625 79.671Z" fill="#73B2E2"/>
<path d="M149.331 0L99.5626 79.671L49.7822 0H149.331Z" fill="#65A5DA"/>
</svg>
