<svg fill="none" xmlns="http://www.w3.org/2000/svg" viewBox="0 0 32 32"><g clip-path="url(#clip0_434_2)"><path d="M27.998 18.802 24 25.203l-4.001-6.401z" fill="#69AEE0"/><path d="m16 25.204 4-6.402 4 6.402z" fill="#70B1E1"/><path d="M19.999 18.802 16 25.203l-4-6.401z" fill="#92CAEF"/><path d="m8 25.204 4-6.402 4 6.402z" fill="#92CAEF"/><path d="m0 25.204 4-6.402 4 6.402z" fill="#7EBAE6"/><path d="m32 12.401-4 6.4-4-6.4z" fill="#85C1EB"/><path d="m20 18.802 4-6.4 3.999 6.4z" fill="#7EBAE6"/><path d="m24 12.401-4 6.4-4-6.4z" fill="#7BB8E5"/><path d="m12 18.802 4-6.4 3.999 6.4z" fill="#85C1EB"/><path d="m16 12.401-4 6.4-4-6.4z" fill="#73B2E2"/><path d="m4 18.802 4-6.4 3.999 6.4z" fill="#67A0D3"/><path d="M24 12.402 28 6l4 6.402z" fill="#99D2F3"/><path d="M16 12.402 20 6l4 6.402z" fill="#82BEE9"/><path d="M8 12.402 12 6l4 6.402z" fill="#73B2E2"/><path d="m11.999 6-4 6.402L4 6z" fill="#65A5DA"/></g><defs><clipPath id="clip0_434_2"><rect width="32" height="32" fill="white"/></clipPath></defs></svg>