<svg viewBox="0 0 1131 239" fill="none" xmlns="http://www.w3.org/2000/svg"><path d="M891.75 208.5v-51h12V239l-55-57v51.5h-12V152zm71.5-53.5c22.368 0 40.5 18.132 40.5 40.5s-18.132 40.5-40.5 40.5-40.5-18.132-40.5-40.5 18.132-40.5 40.5-40.5m-391.5 57.5s4.9 11 16.5 11 16.5-11 16.5-11V157h12v54.5c0 8-8.9 23-28.5 23s-28.5-15-28.5-23V157h12zm-117.415-56.235q4.682.1 9.138.904h-.001c3.422.551 6.456 1.62 9.09 3.218l.503.309c2.491 1.583 4.49 3.69 5.994 6.313 1.625 2.837 2.409 6.472 2.409 10.855q-.001 2.225-.629 4.532a17.3 17.3 0 0 1-1.673 4.296l-.001-.001a17 17 0 0 1-2.62 3.68l-.018.018a13 13 0 0 1-2.143 1.74 17.4 17.4 0 0 1 4.731 2.14l.364.24a19 19 0 0 1 4.647 4.47l.257.342a21.2 21.2 0 0 1 2.97 5.71l.138.407a20 20 0 0 1 1.009 6.294c0 3.68-.664 6.889-2.021 9.602l-.282.536a20.2 20.2 0 0 1-6.152 6.904l-.011.008q-3.594 2.436-8.072 3.676l-.602.16-.014.003a43.2 43.2 0 0 1-9.915 1.129H443.75a.75.75 0 0 1-.75-.75v-76l.004-.077a.75.75 0 0 1 .746-.673h9.242zm293.75 0q4.682.1 9.138.904h-.001c3.422.551 6.456 1.62 9.09 3.218l.503.309c2.491 1.583 4.49 3.69 5.994 6.313 1.625 2.837 2.409 6.472 2.409 10.855q-.001 2.225-.629 4.532a17.3 17.3 0 0 1-1.673 4.296l-.001-.001a17 17 0 0 1-2.62 3.68l-.018.018a13 13 0 0 1-2.143 1.74 17.4 17.4 0 0 1 4.731 2.14l.364.24a19 19 0 0 1 4.647 4.47l.257.342a21.2 21.2 0 0 1 2.97 5.71l.138.407a20 20 0 0 1 1.009 6.294c0 3.68-.664 6.889-2.021 9.602l-.282.536a20.2 20.2 0 0 1-6.152 6.904l-.011.008q-3.594 2.436-8.072 3.676l-.602.16-.014.003a43.2 43.2 0 0 1-9.915 1.129H737.5a.75.75 0 0 1-.75-.75v-76l.004-.077a.75.75 0 0 1 .746-.673h9.242zm296.505.235q6.24-.002 11.22 2.968c3.32 1.918 6 4.693 8.05 8.308.13.236.05.537-.18.676l-7.28 4.351a.507.507 0 0 1-.69-.171c-1.32-2.201-2.89-3.846-4.68-4.957l-.01-.004.27-.422-.27.421c-1.71-1.096-3.91-1.661-6.62-1.661-1.43 0-2.86.248-4.3.746l-.01.004q-1.8.569-3.3 1.635l-.43.314c-1.11.861-2 1.904-2.68 3.134l-.01.01c-.66 1.138-1 2.467-1 4.002 0 1.34.31 2.508.9 3.518l.24.387c.58.89 1.27 1.687 2.09 2.389.94.812 1.97 1.532 3.1 2.159q1.83.857 3.54 1.524l5.24 2.031.01.001-.18.438.18-.437a54 54 0 0 1 7.23 3.505c2.31 1.249 4.3 2.765 5.95 4.548l.31.339c1.51 1.71 2.71 3.68 3.58 5.906l.17.442c.82 2.226 1.22 4.788 1.22 7.673 0 3.352-.63 6.482-1.88 9.385-1.2 2.833-2.88 5.275-5.07 7.321q-3.18 3.064-7.53 4.836l-.01.004c-2.91 1.12-6.04 1.677-9.4 1.677-2.84 0-5.52-.463-8.03-1.391l-.5-.192c-2.64-1.052-4.99-2.501-7.04-4.347v-.006c-1.87-1.731-3.43-3.779-4.71-6.139l-.25-.476c-1.24-2.406-2.07-4.985-2.5-7.733l-.08-.552a.507.507 0 0 1 .4-.556l9.22-1.933c.14-.031.3.007.41.101.12.095.19.238.19.388 0 1.938.34 3.742 1.03 5.419a12.4 12.4 0 0 0 2.89 4.178l.23.218q1.8 1.613 4.17 2.58c1.69.62 3.47.932 5.35.932 1.87 0 3.58-.373 5.12-1.111l.01-.003.3-.144q2.235-1.094 3.81-2.832v-.009l.22-.236a12.7 12.7 0 0 0 2.49-4.048l.01-.008.12-.316c.61-1.585.91-3.253.91-5.007 0-1.872-.35-3.468-1.02-4.803v-.008a10.7 10.7 0 0 0-2.78-3.605l-.02-.018a16.3 16.3 0 0 0-3.4-2.431l-.56-.29-.02-.012a42 42 0 0 0-4.51-2.198v-.001l-5.05-2.127v-.003a87 87 0 0 1-6.06-2.917l-.01-.006.25-.435-.25.434c-1.72-.975-3.28-2.077-4.66-3.308l-.58-.535-.02-.016c-1.46-1.523-2.65-3.278-3.58-5.259l-.01-.012c-.87-2.008-1.3-4.303-1.3-6.873 0-3.031.6-5.753 1.8-8.152v-.01l.25-.442a19 19 0 0 1 4.74-5.611l.38-.306a22 22 0 0 1 6.17-3.29l.49-.165a24.8 24.8 0 0 1 8.21-1.378m-524.34 65h22.5V233h-34v-76h11.5zm162.5-52.5h-30v18h29v11.5h-29v23h30V233h-42v-76h42zm448 0h-30v18h29v11.5h-29v23h30V233h-42v-76h42zm-167-3c-16.016 0-29 12.984-29 29s12.984 29 29 29 29-12.984 29-29-12.984-29-29-29m-509.807 57.783h6.483q3.248 0 6.293-.492c2.064-.389 3.886-1.065 5.475-2.021l.011-.006.301-.181a10.3 10.3 0 0 0 3.544-3.677l.011-.018c.979-1.598 1.496-3.669 1.496-6.261 0-2.578-.577-4.595-1.667-6.114-1.13-1.574-2.605-2.805-4.44-3.694l-.009-.004.336-.67-.336.669q-2.526-1.268-5.59-1.778l-.412-.064a44 44 0 0 0-6.419-.496h-5.077zm293.75 0h6.483q3.249 0 6.293-.492c2.064-.389 3.886-1.065 5.475-2.021l.011-.006.301-.181a10.3 10.3 0 0 0 3.544-3.677l.011-.018c.979-1.598 1.496-3.669 1.496-6.261 0-2.578-.577-4.595-1.667-6.114-1.13-1.574-2.605-2.805-4.44-3.694l-.009-.004.336-.67-.336.669q-2.527-1.268-5.59-1.778l-.412-.064a44 44 0 0 0-6.419-.496h-5.077zm-293.75-33.867h1.661q3.258-.001 6.106-.395c1.931-.323 3.578-.899 4.957-1.715 1.351-.867 2.431-2.04 3.24-3.536.795-1.536 1.221-3.62 1.221-6.304 0-2.454-.374-4.377-1.072-5.815l-.144-.28-.012-.022c-.696-1.398-1.654-2.48-2.878-3.266l-.249-.152-.02-.014c-1.286-.821-2.775-1.375-4.479-1.651l-.343-.052-.026-.004q-2.842-.492-6.1-.493h-1.862zm293.75 0h1.661q3.258-.001 6.106-.395c1.931-.323 3.578-.899 4.957-1.715 1.351-.867 2.431-2.04 3.24-3.536.795-1.536 1.221-3.62 1.221-6.304 0-2.454-.374-4.377-1.072-5.815l-.144-.28-.012-.022c-.696-1.398-1.654-2.48-2.878-3.266l-.249-.152-.02-.014c-1.286-.821-2.775-1.375-4.479-1.651l-.343-.052-.026-.004q-2.842-.492-6.1-.493h-1.862z" fill="currentColor"/><path d="m348.451 159.322-49.761 79.672-49.794-79.672z" fill="#69AEE0"/><path d="m199.122 238.996 49.78-79.678 49.78 79.678z" fill="#70B1E1"/><path d="m248.891 159.322-49.768 79.672-49.781-79.672z" fill="#92CAEF"/><path d="m99.563 238.996 49.78-79.678 49.78 79.678z" fill="#92CAEF"/><path d="m0 238.994 49.78-79.672L99.56 239z" fill="#7EBAE6"/><path d="m398.249 79.672-49.78 79.652-49.787-79.652z" fill="#85C1EB"/><path d="m248.901 159.324 49.774-79.652 49.774 79.652z" fill="#7EBAE6"/><path d="m298.682 79.672-49.78 79.652-49.78-79.652z" fill="#7BB8E5"/><path d="m149.342 159.324 49.781-79.652 49.768 79.652z" fill="#85C1EB"/><path d="m199.123 79.672-49.78 79.652-49.78-79.652z" fill="#73B2E2"/><path d="m49.782 159.324 49.78-79.652 49.769 79.652z" fill="#67A0D3"/><path d="M298.682 79.671 348.457 0l49.786 79.677z" fill="#99D2F3"/><path d="M199.122 79.671 248.902 0l49.78 79.677z" fill="#82BEE9"/><path d="M99.563 79.671 149.343 0l49.78 79.677z" fill="#73B2E2"/><path d="M149.331 0 99.563 79.671 49.783 0z" fill="#65A5DA"/></svg>